<svg xmlns="http://www.w3.org/2000/svg" xmlns:xlink="http://www.w3.org/1999/xlink" id="Layer_1" width="100%" x="0" y="0" enable-background="new 0 0 1024 1024" version="1.1" viewBox="0 0 1024 1024" xml:space="preserve"><path fill="#000" stroke="none" d="M490.280518,783.122681 C480.471893,792.280762 468.649841,796.188599 456.181152,798.101685 C443.216583,800.090942 430.155487,801.672668 416.975189,801.200745 C389.847107,800.229309 363.078522,796.683411 336.730133,790.035767 C284.235443,776.791382 237.351807,752.925720 197.920944,715.556030 C158.747131,678.429932 131.573669,633.828247 117.532814,581.557190 C109.938576,553.285522 106.399452,524.404663 107.785362,495.157196 C109.385239,461.394073 116.544281,428.779694 129.477997,397.398834 C141.452454,368.345367 157.076187,341.592560 177.799408,317.983917 C194.420364,299.048737 212.760910,281.965607 233.313293,267.190308 C262.271149,246.372253 293.737000,230.866226 327.740692,220.348541 C358.940704,210.698029 390.764740,206.197510 423.523834,206.467087 C465.544250,206.812866 505.298889,215.743103 542.855469,234.405380 C565.832336,245.822815 586.312317,260.892426 604.969849,278.444275 C610.616455,283.756226 610.435181,283.792389 616.940308,280.031586 C633.371094,270.532501 651.158081,265.923431 670.062683,264.567017 C703.684692,262.154541 734.997009,270.706818 765.273865,284.026550 C784.359253,292.422821 800.819031,305.036285 816.187988,318.907043 C837.352539,338.008331 855.616821,359.573669 868.590210,385.178406 C880.769653,409.216217 888.819092,434.602844 893.511719,461.176788 C896.296997,476.949432 897.782593,492.773560 897.877380,508.715576 C898.103882,546.843933 891.582031,583.743103 877.408936,619.271118 C864.005737,652.869263 845.548462,683.322144 821.746582,710.523621 C790.460327,746.278381 752.975586,773.444336 708.306335,789.852844 C688.635864,797.078430 667.899353,800.517761 647.163696,794.260986 C632.767090,789.916931 622.126831,780.732971 619.874207,764.881653 C617.672363,749.387634 625.541443,734.802673 639.699829,727.002075 C651.825256,720.321533 664.872131,715.607117 677.400696,709.778687 C720.857117,689.562134 756.754028,660.282959 782.553467,619.718384 C798.489441,594.662231 809.450073,567.366882 812.668823,537.461243 C815.615417,510.083771 814.557068,482.975464 805.554077,456.718201 C798.302979,435.570038 787.337219,416.744720 768.733337,403.295929 C766.572144,401.733551 764.243835,400.081818 763.822266,397.248444 C763.357483,394.124878 763.014160,390.766388 766.173828,388.615082 C769.613953,386.272736 773.231506,386.652740 776.477295,388.886719 C783.484192,393.709259 790.048523,399.130585 795.583191,405.604614 C813.637268,426.722961 822.953186,451.707336 827.439270,478.751862 C837.144836,537.261536 823.537598,590.618225 789.997742,638.727478 C761.807922,679.162720 723.982361,708.254883 678.460449,727.301453 C667.278992,731.979858 655.627686,735.693726 645.660339,742.976685 C638.924438,747.898499 635.246643,754.329590 636.325928,762.673706 C637.350586,770.595398 642.989014,774.992310 649.859985,778.042480 C658.122864,781.710510 666.782959,780.983459 675.399170,780.186584 C710.204407,776.967285 738.153137,758.550720 765.450317,738.997314 C780.899048,727.931213 795.118896,715.326660 807.659180,700.976135 C840.086426,663.867432 863.217224,621.846741 874.595337,573.657043 C877.921753,559.568604 879.796570,545.304871 880.817444,530.851746 C883.883728,487.439728 877.222168,445.760040 859.915222,405.760071 C846.738708,375.306244 826.226929,350.543701 801.715332,328.631165 C774.538879,304.336334 742.886780,289.348846 707.233337,282.988007 C679.856567,278.103790 652.899048,278.854034 627.848999,293.196075 C626.138672,294.175262 624.179932,294.832764 622.883728,297.077332 C628.558838,304.852112 634.595032,312.563812 640.033569,320.676147 C656.821228,345.717285 668.051208,373.128143 674.065125,402.659821 C675.802795,411.192810 672.852173,415.041687 665.575500,414.355865 C660.846313,413.910126 659.870728,410.268494 658.906860,406.734833 C655.625366,394.704559 652.494019,382.656708 647.798523,371.041199 C637.965088,346.715637 624.462769,324.827606 606.963379,305.187408 C589.043457,285.075287 568.527344,268.328918 545.385010,254.749527 C519.536316,239.582108 491.446625,230.447098 462.030670,225.597565 C443.644928,222.566467 424.986969,221.266312 406.346130,222.519821 C366.995605,225.165985 329.316833,234.480438 293.476898,251.248581 C256.314575,268.635437 223.675644,292.213898 196.132324,322.497070 C167.129089,354.385315 146.574997,391.246368 134.460266,432.707397 C128.990555,451.426666 126.113983,470.566528 124.171432,489.961365 C122.057205,511.070282 124.656578,531.714355 128.049957,552.403687 C132.221725,577.838806 139.583160,602.290161 151.305145,625.247559 C162.925507,648.005798 176.815765,669.249390 194.387009,688.043030 C209.578415,704.291199 225.801086,719.237549 244.281082,731.657776 C279.440735,755.288513 318.026764,770.508240 359.519196,778.627197 C383.595459,783.338318 407.904846,785.310364 432.396088,784.572021 C444.051086,784.220581 455.544830,782.197327 466.616608,778.393555 C473.552063,776.010803 479.214355,771.667786 483.789581,765.935059 C489.337189,758.983948 488.295563,751.404724 485.996216,743.641541 C480.461731,724.955994 466.029968,717.754517 448.546234,714.347473 C440.951569,712.867493 433.288330,713.608704 425.656494,713.318848 C384.970154,711.773132 345.304413,705.469421 308.300964,687.377075 C283.900330,675.446777 263.691498,658.623718 251.352966,634.038452 C243.485336,618.361633 239.340256,601.563110 239.350021,583.623962 C239.357651,569.622498 240.052673,555.848877 243.140457,542.213135 C243.470444,540.755920 242.955887,539.616272 242.448883,538.391846 C235.042984,520.507263 229.193909,502.120087 225.595947,483.103302 C222.353409,465.965118 220.332443,448.699982 222.634323,431.193359 C223.787476,422.423340 229.827515,414.114349 236.649506,412.999664 C241.132355,412.267212 245.596283,413.401917 249.929001,414.413300 C270.128174,419.128540 289.428955,426.320953 307.624573,436.298798 C311.705780,438.536774 314.340607,438.445312 317.896790,434.887695 C327.300995,425.479614 338.816742,418.959442 350.904327,413.647980 C364.914215,407.491760 379.261749,402.207703 394.289948,398.953705 C403.249420,397.013733 412.280609,395.741516 421.436249,395.682617 C424.637512,395.661987 426.558746,394.542480 428.342529,391.874115 C441.357269,372.405243 456.729187,354.923462 473.854492,338.990906 C477.861206,335.263306 481.170227,330.841339 485.922211,327.820404 C491.130707,324.509247 496.940399,324.152954 502.668793,323.812561 C507.145905,323.546539 509.079651,327.543396 510.876434,330.915894 C515.926880,340.395294 518.262329,350.851440 521.278137,361.039001 C526.476379,378.599213 529.089966,396.675903 531.253113,414.809052 C531.552368,417.317871 532.594055,418.588623 534.627319,419.790894 C545.965820,426.495148 557.182678,433.475861 566.788574,442.544037 C579.984070,455.000977 590.237732,469.765045 598.125916,486.050385 C609.504333,509.541656 612.889771,534.609924 611.026733,560.382568 C610.277100,570.753479 608.097900,581.020996 606.514282,591.706665 C616.062744,592.357666 625.448303,592.983154 634.830750,593.651978 C636.308472,593.757385 637.837524,593.857666 639.229431,594.309631 C642.553894,595.389160 645.689209,597.065491 645.105774,601.211304 C644.508179,605.457764 641.546326,607.358398 637.297913,607.348572 C628.298340,607.327759 619.298523,607.319458 610.298950,607.348083 C598.553162,607.385437 601.186340,606.469604 597.010681,616.044312 C594.755310,621.215820 592.249512,626.278198 589.873291,631.397461 C589.826416,631.498291 589.983765,631.693787 590.231750,632.298462 C600.056458,634.128784 610.040344,636.502747 619.792664,639.768921 C622.662170,640.729919 625.427429,641.880798 627.785889,643.751099 C630.956238,646.265137 632.578430,649.494751 630.379822,653.362427 C628.178101,657.235535 624.454468,658.594238 620.525513,656.681519 C609.623718,651.374146 597.928528,649.057373 586.204834,646.665405 C581.751709,645.756897 578.597412,646.321716 575.580505,650.423706 C567.971008,660.770142 559.163208,670.095459 549.120117,678.198730 C547.096497,679.831543 545.378845,681.843323 543.239136,683.958130 C546.003906,686.401367 548.511841,688.531189 550.925110,690.763428 C575.796814,713.769836 571.004150,748.066833 545.087830,767.007812 C532.406128,776.276245 518.106628,781.159546 502.111511,780.480225 C498.190216,780.313660 494.101166,780.578369 490.280518,783.122681 M585.801575,594.513306 C588.394043,593.944946 588.973511,591.731445 589.563110,589.674866 C595.166138,570.132629 597.360596,550.194275 594.428833,530.062744 C587.954346,485.603333 562.794861,454.422852 523.867432,433.708923 C518.580322,430.895569 516.000977,427.640839 515.712341,421.968567 C514.815430,404.341736 511.786469,387.029755 507.637543,369.911987 C505.299286,360.264618 502.730865,350.660278 497.910095,341.726135 C492.270508,343.087219 489.407806,347.447113 485.903137,350.842194 C468.300354,367.894806 451.270782,385.446625 438.932587,406.915894 C437.392761,409.595215 435.357727,410.788177 432.015991,410.711731 C426.384949,410.582977 420.677551,410.736847 415.107544,411.520111 C389.648499,415.100342 365.550537,422.921021 343.315948,435.942871 C338.111938,438.990601 332.965729,442.468109 329.110962,448.116638 C334.388672,451.636597 339.411835,454.828308 344.257141,458.270325 C347.882233,460.845551 348.699860,465.661377 346.463379,469.315094 C344.307831,472.836609 340.156097,473.813110 335.951019,471.642365 C334.331665,470.806427 332.862946,469.674927 331.339691,468.657013 C305.429413,451.342010 278.163452,436.990234 247.472153,430.038116 C239.720520,428.282257 238.100754,429.281677 237.379868,437.238281 C236.443420,447.573822 237.352341,457.920837 238.666275,468.099670 C241.533310,490.310242 248.264313,511.544830 257.122559,532.075195 C259.285034,537.087097 259.533997,541.745239 258.109375,547.046509 C252.596527,567.560730 252.900803,588.222168 258.805817,608.542542 C267.465210,638.341309 287.374695,658.881836 314.574951,672.453796 C337.185486,683.735596 361.284454,690.354797 386.385712,693.921387 C414.351593,697.894897 442.453278,697.534485 470.530182,698.038025 C480.256989,698.212463 489.357178,695.627258 494.601166,685.874390 C499.922455,675.977722 499.477051,665.765869 497.017822,655.317200 C496.514648,653.179260 495.044342,652.647827 493.103333,652.148010 C485.116211,650.091064 479.826324,644.746033 476.516083,637.443787 C473.869202,631.604858 476.511658,626.675354 482.818481,625.690063 C490.474640,624.494080 497.621490,622.088501 504.391571,618.308716 C506.666626,617.038635 509.326813,616.321411 511.900208,615.762085 C514.338989,615.231995 516.543457,616.041809 517.837952,618.420654 C522.245544,626.520691 520.776245,640.347839 514.465759,647.086426 C512.480347,649.206543 511.809692,651.383484 512.515869,653.867798 C514.694275,661.531372 514.349426,669.350037 514.359985,677.163513 C514.361633,678.383057 513.659485,679.851990 515.142090,680.754395 C515.526611,680.720581 515.909180,680.793274 516.172546,680.648682 C531.844238,672.044434 545.118469,660.568604 556.555115,646.894470 C557.375671,645.913391 557.479431,644.980164 557.059204,643.693909 C554.413940,635.595398 556.670105,631.980347 565.152771,630.771423 C567.302490,630.465088 569.597900,630.701904 570.965759,628.584167 C574.473389,623.153381 578.078125,617.769348 580.514954,611.500488 C578.308411,611.241394 576.451721,611.672424 574.512939,612.006775 C570.272156,612.738220 566.242004,614.587708 561.805542,614.311096 C557.750854,614.058289 555.813721,611.802917 555.494690,607.962280 C555.189514,604.287720 556.127258,601.733521 560.321350,600.538696 C568.478271,598.214722 576.613586,595.900208 585.801575,594.513306 M514.560486,701.116333 C505.726013,707.169128 496.221466,711.577942 484.976868,712.394714 C485.643402,713.420105 485.831451,713.880249 486.160614,714.191162 C499.182159,726.495300 504.464630,741.788574 503.466309,759.420715 C503.298004,762.392944 504.023163,763.576233 507.175659,763.723145 C518.903198,764.269653 528.774719,759.431763 537.169678,752.205994 C554.258789,737.496948 556.155090,718.747986 540.869629,703.888733 C531.383301,694.666870 526.682678,694.224976 514.560486,701.116333 z" opacity="1"/><path fill="#000" stroke="none" d="M381.870605,620.402222 C376.771606,618.221069 372.469055,615.909912 372.626801,609.654724 C372.795380,602.968750 377.074402,599.969971 383.307922,602.590271 C387.886536,604.514893 392.265564,606.768005 397.256409,607.747620 C409.389038,610.129089 419.468933,606.456360 428.231506,598.182678 C432.597717,594.060181 436.275970,593.517761 439.620575,596.410461 C443.420532,599.697021 443.521790,606.063293 439.537964,610.276794 C431.944763,618.307800 422.481567,623.151733 411.575500,624.171875 C401.654907,625.099915 391.625153,624.863403 381.870605,620.402222 z" opacity="1"/><path fill="#000" stroke="none" d="M554.213257,568.107971 C542.681030,581.089966 528.247620,583.010132 512.574768,580.178772 C509.280304,579.583496 507.516693,576.807373 507.794647,573.512512 C508.138611,569.434509 509.903656,566.144348 514.629761,565.668091 C518.575439,565.270508 522.512329,565.613831 526.514221,564.994019 C536.296143,563.478821 542.451965,558.089661 545.620178,549.001709 C547.211060,544.438477 550.166260,542.281738 555.019958,542.659180 C559.869507,543.036255 562.734375,546.725708 561.718994,551.580383 C560.477844,557.514282 557.830994,562.842041 554.213257,568.107971 z" opacity="1"/></svg>