<svg xmlns="http://www.w3.org/2000/svg" xmlns:xlink="http://www.w3.org/1999/xlink" id="Layer_1" width="100%" x="0" y="0" enable-background="new 0 0 1024 1024" version="1.1" viewBox="0 0 1024 1024" xml:space="preserve"><path fill="#000" stroke="none" d="M217.323212,719.754272 C199.705093,708.189148 190.333420,692.132507 188.572357,671.539917 C187.052414,653.766663 186.162613,635.983398 189.691910,618.352783 C192.205658,605.795410 197.773804,594.761841 207.696823,586.294373 C209.933548,584.385742 210.290543,582.611877 208.065430,580.479309 C196.223083,569.129150 191.601028,554.563477 189.871658,538.835449 C188.077499,522.518127 188.321991,506.275238 192.508301,490.248230 C195.002319,480.699982 199.610367,472.326233 206.154602,465.008850 C211.417465,459.124146 211.506439,459.137512 206.231476,453.609100 C196.762024,443.684662 191.629196,431.467041 190.129868,418.259766 C187.230530,392.720093 186.694412,366.948425 192.214005,341.721710 C196.593933,321.703613 209.912720,308.032501 229.289642,301.828217 C252.566269,294.375214 276.286652,288.298828 299.849426,281.750702 C358.987732,265.315948 418.143250,248.943344 477.296600,232.562851 C496.370880,227.280884 515.381042,221.739929 534.566284,216.894836 C550.715332,212.816574 566.958862,213.303177 582.730347,219.049667 C656.408447,245.895050 730.049194,272.842957 803.701782,299.758575 C805.422119,300.387268 807.128235,301.055511 808.833374,301.724823 C823.779785,307.591522 829.243713,317.561981 826.052368,333.229584 C824.069519,342.963837 817.659973,348.311035 808.500671,351.098206 C792.418335,355.992065 776.394165,361.076569 760.321899,366.003784 C675.832397,391.904999 591.330933,417.767029 506.846130,443.683411 C493.932159,447.644897 481.446442,446.992157 468.793884,442.052124 C397.136475,414.074341 325.320892,386.500488 253.728775,358.357605 C236.578506,351.615814 230.377884,358.912292 229.826492,372.566254 C229.322525,385.046234 228.644165,397.512360 230.410034,409.946136 C231.844376,420.045746 239.083725,424.863617 247.552185,428.360291 C258.173218,432.745667 268.875122,436.935852 279.555481,441.176758 C337.596619,464.223602 395.641754,487.260498 453.685944,510.299774 C460.960327,513.187195 468.286591,515.950806 475.501282,518.980164 C486.317108,523.521606 497.057007,522.003723 507.733887,518.734192 C554.517883,504.407745 601.271423,489.981934 648.045715,475.623810 C698.795898,460.045227 749.653015,444.805878 800.269348,428.804413 C822.957336,421.632019 831.545837,434.313843 828.989441,454.586426 C827.580444,465.759796 821.470947,472.697052 810.963379,476.198059 C786.319458,484.409119 761.707214,492.714905 737.065857,500.933685 C697.903015,513.995850 658.719543,526.996277 619.558594,540.063965 C580.867249,552.974854 542.071045,565.587646 503.566772,579.035400 C486.394287,585.032959 471.186462,580.897034 455.314545,574.476624 C387.241089,546.939697 318.907745,520.045593 250.819611,492.544525 C240.473480,488.365723 232.053558,493.631012 230.649292,503.767029 C228.885925,516.494873 228.808105,529.340942 230.628769,542.095886 C231.866074,550.764099 238.068054,555.833435 245.289139,559.234070 C256.276276,564.408325 267.595123,568.885437 278.817993,573.550598 C337.412903,597.907837 396.020203,622.235229 454.628815,646.559448 C460.627899,649.049133 466.709747,651.343689 472.672546,653.915649 C481.184570,657.587341 489.753479,657.850769 498.468323,654.827148 C534.646851,642.275024 570.784180,629.602600 607.011658,617.193298 C672.847290,594.642029 738.732117,572.234131 804.614319,549.818970 C808.372375,548.540344 812.192871,547.483582 816.343872,548.382935 C825.061523,550.271729 829.189758,555.086365 829.346619,564.055603 C829.393250,566.721191 829.352539,569.388489 829.337708,572.054932 C829.266418,584.890259 825.075317,591.504944 813.104736,596.179688 C793.560242,603.812378 773.917664,611.198181 754.256531,618.527344 C706.355591,636.383423 658.434570,654.186035 610.494019,671.935608 C573.801208,685.520813 537.018677,698.864990 500.375763,712.582703 C487.670685,717.338928 475.584808,717.028625 463.072388,711.725098 C401.430389,685.597534 339.679932,659.725891 277.959839,633.782715 C268.134521,629.652832 258.323456,625.480103 248.406845,621.578674 C238.170319,617.551331 231.667862,620.755005 229.992096,631.595581 C228.164612,643.417664 227.822327,655.413940 229.809616,667.368347 C230.748016,673.013306 233.763504,677.154846 238.054474,680.579468 C242.897079,684.444397 248.180145,687.567932 253.857300,690.079956 C322.707001,720.543701 391.532196,751.062744 460.396729,781.492920 C468.903931,785.252136 477.399017,789.176025 487.132294,788.721680 C492.716614,788.460938 497.999786,787.078796 503.138092,785.165344 C538.873352,771.857483 574.550720,758.394104 610.289734,745.096436 C678.180969,719.835571 746.100708,694.651489 814.011536,669.443298 C815.258484,668.980469 816.524048,668.546692 817.810974,668.216064 C825.267944,666.300537 830.624939,669.747009 831.133362,677.343994 C831.679321,685.503052 830.819397,693.687073 829.065308,701.639221 C827.843201,707.179199 822.904602,709.697083 818.022766,711.654846 C802.412109,717.915100 786.783020,724.130859 771.119385,730.257446 C717.458862,751.245667 663.775330,772.174927 610.111084,793.153687 C578.937744,805.340088 547.893127,817.865540 516.586426,829.698242 C493.257660,838.515686 469.937378,837.590576 447.178741,827.069885 C374.603363,793.520447 302.032288,759.961548 229.484360,726.352722 C225.416031,724.468018 221.570358,722.102661 217.323212,719.754272 z" opacity="1"/></svg>