<svg xmlns="http://www.w3.org/2000/svg" width="428" height="492" fill="none" viewBox="0 0 428 492"><path stroke="#000" stroke-width="10" d="M8.064 199.142c16.644-16.665 30.13-9.437 34.792-3.739l-14.271-17.164-20.52 20.903Z"/><path fill="#fff" d="M198.286 12.373 7.5 177.376l189.894 186.162c7.619 7.469 19.759 7.643 27.588.395l184.644-170.935c8.914-8.253 8.473-22.483-.936-30.167L224.02 12.01c-7.527-6.148-18.384-5.994-25.734.363Z"/><path stroke="#fff" stroke-linecap="round" stroke-width="15" d="M7.5 177.376 198.286 12.373c7.35-6.357 18.207-6.51 25.734-.363l184.67 150.82c9.409 7.684 9.85 21.914.936 30.167L224.982 363.933c-7.829 7.248-19.969 7.074-27.588-.395L7.5 177.376Zm0 0v75.683c0 4.415 1.36 8.632 4.276 11.947 29.882 33.978 146.001 140.053 185.773 176.179 7.657 6.955 19.269 6.817 26.868-.201L420.5 259.876M29 240.376l168.36 161.886c7.652 7.358 19.719 7.456 27.489.223L420.5 220.376"/><mask id="a" width="142" height="143" x="233" y="349" maskUnits="userSpaceOnUse" style="mask-type:luminance"><path fill="#fff" d="M304.211 349.876 233.5 420.587l70.711 70.711 70.71-70.711-70.71-70.711Z"/></mask><g mask="url(#a)"><path fill="#fff" d="m310.103 467.728-47.141-47.141c-1.62-1.62-2.43-3.584-2.43-5.892 0-2.308.81-4.273 2.43-5.893l29.463-29.463c1.621-1.62 3.585-2.43 5.893-2.43s4.272.81 5.892 2.43l47.141 47.141-29.463 11.785-11.785 29.463Z"/></g></svg>